<?xml version="1.0" encoding="UTF-8"?><svg id="Layer_1" xmlns="http://www.w3.org/2000/svg" viewBox="0 0 99.54 27.67"><path d="M99.51,14.03c.1.63-.08.97-.41,1.48-.62.96-2.68,2.95-3.81,3.15-2.71.47-2.85-2.38-2.11-4.28.34-.88,1.67-2.89,1.76-3.61.08-.62-.41-.96-.96-1.06-1.42,2.35-2.76,4.74-4.63,6.77-2.03,2.21-5.64,4.66-7.13.51-.69,1.27-3.75,4.05-4.85,1.89-.95-1.86,1.39-5.36,1.91-7.23.39-1.41-.74-.36-1.17.09-.95,1.01-1.94,2.55-2.62,3.76s-1.26,3.02-1.95,4.1c-.54.85-1.59.48-1.71-.44-.03-.21.13-.43,0-.57-1.16,1.53-4.01,3.25-4.51.29-.09-.55-.3.13-.4.27-1.58,2.16-3.94,3.05-4.33-.45-.91,1.25-2.42,3.52-4.24,2.53-.64-.35-.7-.76-.93-1.35-.05-.12.06-.2-.18-.16-.85,1.14-2.18,2.38-3.71,1.88-2.91-.94.46-5.89,1.01-7.56.11-.64-.47-.85-1-.94-1.12,2.19-2.18,4.63-3.54,6.67-.43.64-1.87,2.74-1.62.66l3.86-7.67c.09-.38-.27-.76-.27-1.2,0-.82.63-2.09,1.53-2.22,1.56-.23,1.14,1.14.97,2.15.79.41,2.22.75,2.38,1.79.21,1.43-2.12,3.77-2.34,5.52-.15,1.16.75,1.19,1.54.62,1.57-1.12,1.52-2.91,2.3-4.54.64-1.33,2.02-3.24,3.26-4.04,1.16-.75,2.68-1.23,3.23.44.39-.41.5-.89,1.2-.92.9-.04,1.08.71.86,1.44-.5,1.69-1.61,3.32-2.02,5.16-.13.59-.51,1.9.13,2.19.78,0,2.7-3.07,3.05-3.8.41-.87,1.9-5.21,2.49-5.5.72-.35,1.51.28,1.49,1.02-.02.69-1.21,2.79-1.54,3.6-.25.61-1.51,3.68-.98,4.05.71.21,1.5-.66,1.95-1.15,1.56-1.65,1.72-3.41,2.57-5.42.33-.78,1.44-3.9,2.64-2.59.67.73-.53,2.57-.82,3.38-.04.11-.15.37.06.35.72-1.35,2.85-4.47,4.51-4.46,1.93.01,1.24,2.72.86,3.83-.48,1.38-1.72,3.25-1.9,4.62-.21,1.64,1.92-.58,2.24-.97.83-1,.68-1.69,1.06-2.82.65-1.96,2.62-4.69,4.61-5.42,2.96-1.09,3.27,2.19,2.06,4.12-.62.99-1.91,1.97-2.91,2.56-.35.21-2.08.94-2.15,1.04-.29.43.22,1.67.83,1.81,1.67.37,4.36-2.62,5.19-3.89.33-.5.66-1.14.95-1.68.26-.49,1.18-2.21,1.26-2.63.06-.27-.26-.71-.27-1.08-.03-1.11,1.03-2.69,2.29-2.32.97.29.22,1.92.36,2.14.75.42,2.54.91,2.68,1.89.21,1.44-2.67,3.76-2.74,5.69s1.55,1.16,2.46.4c.46-.38,1.41-1.66,1.7-1.83.18-.11.31-.14.52-.11ZM84.57,13.91c.94-.51,1.9-1.06,2.62-1.89.37-.42,1.52-2.07.8-2.51-.12-.07-.26-.07-.4-.06-1.29.05-2.9,3.26-3.02,4.46ZM59.62,19.36c.5.5,1.25-.35,1.57-.71,1.09-1.2,3.11-4.54,2.82-6.14-.18-1.01-1.07-.74-1.68-.26-1.08.86-2.39,3.6-2.68,4.96-.1.47-.36,1.81-.03,2.14Z"/><path d="M34.52,19.52c-.1,3.88,3.19,1.21,4.55-.19.29-.3,1.37-2.01,1.77-1.43.16.84-.69,1.81-1.21,2.45-1.35,1.67-4.14,4.18-6.32,2.45-.68-.54-.69-1.09-1.03-1.82-.83,1.12-2.93,3.65-4.5,2.67-1.39-.87-.32-3.57.11-4.79.32-.89,1.37-2.87,1.37-3.65,0-.18.03-.2-.17-.17-1.87,1.48-3.32,3.65-4.38,5.77-.28.57-1.28,3.25-1.61,3.4-.67.31-1.37-.33-1.38-1.02,0-1.45,1.08-3.55,1.49-4.96-.34.58-1.57.73-1.88,1.03-.29.28-.98,2.05-1.29,2.58-.5.85-1.15,1.7-1.97,2.25-1.22.82-3.16,1.36-4.08-.13-1.51-2.46.76-6.84,2.49-8.76.57-.63.83-1.02,1.71-.52.1-.48.88-.95,1.32-1.02,2.09-.33,2.4,1.65,2.33,3.24-.03.83-.36,1.08.72.38.7-.45,1.33-1.18,1.77-1.88.46-.75.85-2.51,2.1-1.94,1.16.53-.45,2.42-.42,3.28.82-1.24,3.11-4.28,4.76-3.97.61.12,1.04.83,1.1,1.41.2,1.92-2,4.56-2.54,6.45-.36,1.29-.09,1.76,1.06.83,2.46-1.97,2.32-4.98,4.44-7.3,1.12-1.23,4.83-3.86,5.13-.68s-2.92,5.03-5.45,6.01ZM34.84,17.91c1.58-.65,3.68-2.26,3.2-4.17-.57-.4-1.59.93-1.88,1.33-.6.82-1.12,1.83-1.32,2.84ZM20.01,18.02c.14-.65.71-2.96-.39-2.85-1.16.11-.99,2.72.39,2.85ZM17.61,16.99c-.2-.16-1.49,2.36-1.58,2.58-.31.78-1.02,3.32.18,3.56,1.52.3,3.04-2.85,3.44-4.03-.92-.41-1.82-1.06-2.04-2.11Z"/><path d="M14.88,6.39c-2.63.27-5.27.5-7.72,1.58-1.99.88-5.1,3.16-4.38,5.67.18.62.68.98.92,1.53-3.59.03-4.69-2.94-2.76-5.79,4.14-6.12,15.31-5.02,21.76-5.27,3.37-.13,7.55-.4,10.51-2.15.75-.45,1.62-1.08,1.86-1.96.33.14.25.77.23,1.09-.18,2.72-3.26,4.13-5.57,4.7-3.96.98-8.08.42-12.11.66-3.54,5.77-6.45,12.21-8.47,18.67-.17.55-.39,1.87-.6,2.25-.38.67-2.29.18-2.31-1.08-.01-1.14.93-3.63,1.34-4.79.98-2.76,2.24-5.41,3.44-8.08l3.86-7.03Z"/><path d="M45.53,24.27c-.8.43-2.18-.09-2.26-1.06-.08-.91.67-2.99.98-3.93,1.08-3.31,2.51-6.82,3.88-10.04.57-1.34,1.25-2.63,1.76-4-2.99.64-7.7.89-8.44,4.56-.16.19-.51-.55-.55-.64-1.77-3.53,2.73-5.08,5.37-5.67,4.59-1.01,9.5-.3,13.89-2.2,1.12.13.64,1.14.1,1.71-1.35,1.41-4.45,1.92-6.32,2.12-.39.04-1.06-.14-1.32.16-2.58,6.23-5.25,12.47-7.09,18.97Z"/><path d="M71.88,5.96c1.65-.34,2.24,2.04.66,2.6-1.94.69-2.43-2.24-.66-2.6Z"/></svg>